<?xml version="1.0" encoding="utf-8"?>
<!-- Generator: Adobe Illustrator 23.0.3, SVG Export Plug-In . SVG Version: 6.00 Build 0)  -->
<svg version="1.1" baseProfile="basic" xmlns="http://www.w3.org/2000/svg" xmlns:xlink="http://www.w3.org/1999/xlink" x="0px"
	 y="0px" viewBox="0 0 200 150" xml:space="preserve">
<g id="Layer_2">
</g>
<g id="Layer_1">
	<polygon fill="#E02058" points="79.7,150.2 79.5,149.9 120.3,-0.1 120.5,-0.2 200,-0.2 200.2,0 200.2,150 200,150.2 	"/>
	<polygon fill="#E02058" points="79.7,150 120.5,0 200,0 200,150 	"/>
	<polygon points="0,150.2 -0.2,150 -0.2,0 0,-0.2 120.3,-0.2 120.5,0.1 79.7,150.1 79.5,150.2 	"/>
	<polygon points="120.3,0 79.5,150 0,150 0,0 	"/>
	<g>
		<path d="M120.6,121.7c6.8,4.2,16.7,7.7,27.1,7.7c15.5,0,24.5-8.2,24.5-20c0-11-6.3-17.2-22.1-23.3c-19.1-6.8-31-16.7-31-33.2
			c0-18.3,15.1-31.8,37.9-31.8c12,0,20.7,2.8,25.9,5.7l-4.2,12.3c-3.8-2.1-11.7-5.6-22.3-5.6c-16,0-22.1,9.6-22.1,17.6
			c0,11,7.1,16.3,23.3,22.6c19.8,7.7,29.9,17.2,29.9,34.4c0,18.1-13.4,33.7-41,33.7c-11.3,0-23.7-3.3-29.9-7.5L120.6,121.7z"/>
	</g>
	<g>
		<path fill="#E02059" d="M39,144.3L0.7,27H17l18.3,57.7c5,15.8,9.4,30.1,12.5,43.8h0.3c3.3-13.6,8.2-28.3,13.4-43.7L81.4,27h16.2
			L55.7,144.3H39z"/>
	</g>
	<g>
	</g>
	<g>
	</g>
	<g>
	</g>
	<g>
	</g>
	<g>
	</g>
	<g>
	</g>
</g>
</svg>
